  0
SECTION
  2
BLOCKS
  0
ENDSEC
  0
SECTION
  2
ENTITIES
  0
LINE
  8
0
 10
5.61263
 20
-42.6321
 11
11.1292
 21
-41.5348
  0
LINE
  8
0
 10
11.1292
 20
-41.5348
 11
16.4554
 21
-39.7268
  0
LINE
  8
0
 10
16.4554
 20
-39.7268
 11
21.5
 21
-37.2391
  0
LINE
  8
0
 10
21.5
 20
-37.2391
 11
26.1767
 21
-34.1142
  0
LINE
  8
0
 10
26.1767
 20
-34.1142
 11
30.4056
 21
-30.4056
  0
LINE
  8
0
 10
30.4056
 20
-30.4056
 11
34.1142
 21
-26.1767
  0
LINE
  8
0
 10
34.1142
 20
-26.1767
 11
37.2391
 21
-21.5
  0
LINE
  8
0
 10
37.2391
 20
-21.5
 11
39.7268
 21
-16.4554
  0
LINE
  8
0
 10
39.7268
 20
-16.4554
 11
41.5348
 21
-11.1292
  0
LINE
  8
0
 10
41.5348
 20
-11.1292
 11
42.6321
 21
-5.61263
  0
LINE
  8
0
 10
42.6321
 20
-5.61263
 11
43
 21
0
  0
LINE
  8
0
 10
43
 20
0
 11
42.6321
 21
5.61263
  0
LINE
  8
0
 10
42.6321
 20
5.61263
 11
41.5348
 21
11.1292
  0
LINE
  8
0
 10
41.5348
 20
11.1292
 11
39.7268
 21
16.4554
  0
LINE
  8
0
 10
39.7268
 20
16.4554
 11
37.2391
 21
21.5
  0
LINE
  8
0
 10
37.2391
 20
21.5
 11
34.1142
 21
26.1767
  0
LINE
  8
0
 10
34.1142
 20
26.1767
 11
30.4056
 21
30.4056
  0
LINE
  8
0
 10
30.4056
 20
30.4056
 11
26.1767
 21
34.1142
  0
LINE
  8
0
 10
26.1767
 20
34.1142
 11
21.5
 21
37.2391
  0
LINE
  8
0
 10
21.5
 20
37.2391
 11
16.4554
 21
39.7268
  0
LINE
  8
0
 10
16.4554
 20
39.7268
 11
11.1292
 21
41.5348
  0
LINE
  8
0
 10
11.1292
 20
41.5348
 11
5.61263
 21
42.6321
  0
LINE
  8
0
 10
5.61263
 20
42.6321
 11
0
 21
43
  0
LINE
  8
0
 10
0
 20
43
 11
-5.61263
 21
42.6321
  0
LINE
  8
0
 10
-5.61263
 20
42.6321
 11
-11.1292
 21
41.5348
  0
LINE
  8
0
 10
-11.1292
 20
41.5348
 11
-16.4554
 21
39.7268
  0
LINE
  8
0
 10
-16.4554
 20
39.7268
 11
-21.5
 21
37.2391
  0
LINE
  8
0
 10
-21.5
 20
37.2391
 11
-26.1767
 21
34.1142
  0
LINE
  8
0
 10
-26.1767
 20
34.1142
 11
-30.4056
 21
30.4056
  0
LINE
  8
0
 10
-30.4056
 20
30.4056
 11
-34.1142
 21
26.1767
  0
LINE
  8
0
 10
-34.1142
 20
26.1767
 11
-37.2391
 21
21.5
  0
LINE
  8
0
 10
-37.2391
 20
21.5
 11
-39.7268
 21
16.4554
  0
LINE
  8
0
 10
-39.7268
 20
16.4554
 11
-41.5348
 21
11.1292
  0
LINE
  8
0
 10
-41.5348
 20
11.1292
 11
-42.6321
 21
5.61263
  0
LINE
  8
0
 10
-42.6321
 20
5.61263
 11
-43
 21
0
  0
LINE
  8
0
 10
-43
 20
0
 11
-42.6321
 21
-5.61263
  0
LINE
  8
0
 10
-42.6321
 20
-5.61263
 11
-41.5348
 21
-11.1292
  0
LINE
  8
0
 10
-41.5348
 20
-11.1292
 11
-39.7268
 21
-16.4554
  0
LINE
  8
0
 10
-39.7268
 20
-16.4554
 11
-37.2391
 21
-21.5
  0
LINE
  8
0
 10
-37.2391
 20
-21.5
 11
-34.1142
 21
-26.1767
  0
LINE
  8
0
 10
-34.1142
 20
-26.1767
 11
-30.4056
 21
-30.4056
  0
LINE
  8
0
 10
-30.4056
 20
-30.4056
 11
-26.1767
 21
-34.1142
  0
LINE
  8
0
 10
-26.1767
 20
-34.1142
 11
-21.5
 21
-37.2391
  0
LINE
  8
0
 10
-21.5
 20
-37.2391
 11
-16.4554
 21
-39.7268
  0
LINE
  8
0
 10
-16.4554
 20
-39.7268
 11
-11.1292
 21
-41.5348
  0
LINE
  8
0
 10
-11.1292
 20
-41.5348
 11
-5.61263
 21
-42.6321
  0
LINE
  8
0
 10
-5.61263
 20
-42.6321
 11
0
 21
-43
  0
LINE
  8
0
 10
0
 20
-43
 11
5.61263
 21
-42.6321
  0
LINE
  8
0
 10
51.5
 20
2
 11
43.5
 21
2
  0
LINE
  8
0
 10
43.5
 20
2
 11
43.5
 21
-2
  0
LINE
  8
0
 10
43.5
 20
-2
 11
51.5
 21
-2
  0
LINE
  8
0
 10
51.5
 20
-2
 11
51.5
 21
2
  0
ENDSEC
  0
SECTION
  2
OBJECTS
  0
DICTIONARY
  0
ENDSEC
  0
EOF
