  0
SECTION
  2
BLOCKS
  0
ENDSEC
  0
SECTION
  2
ENTITIES
  0
LINE
  8
0
 10
5.49713
 20
-83.87
 11
10.9707
 21
-83.3309
  0
LINE
  8
0
 10
10.9707
 20
-83.3309
 11
16.3973
 21
-82.435
  0
LINE
  8
0
 10
16.3973
 20
-82.435
 11
21.7537
 21
-81.1861
  0
LINE
  8
0
 10
21.7537
 20
-81.1861
 11
27.017
 21
-79.5895
  0
LINE
  8
0
 10
27.017
 20
-79.5895
 11
32.1645
 21
-77.6521
  0
LINE
  8
0
 10
32.1645
 20
-77.6521
 11
37.1744
 21
-75.3822
  0
LINE
  8
0
 10
37.1744
 20
-75.3822
 11
42.025
 21
-72.7894
  0
LINE
  8
0
 10
42.025
 20
-72.7894
 11
46.6957
 21
-69.885
  0
LINE
  8
0
 10
46.6957
 20
-69.885
 11
51.1664
 21
-66.6814
  0
LINE
  8
0
 10
51.1664
 20
-66.6814
 11
55.418
 21
-63.1921
  0
LINE
  8
0
 10
55.418
 20
-63.1921
 11
59.4323
 21
-59.4323
  0
LINE
  8
0
 10
59.4323
 20
-59.4323
 11
63.1921
 21
-55.418
  0
LINE
  8
0
 10
63.1921
 20
-55.418
 11
66.6814
 21
-51.1664
  0
LINE
  8
0
 10
66.6814
 20
-51.1664
 11
69.885
 21
-46.6957
  0
LINE
  8
0
 10
69.885
 20
-46.6957
 11
72.7894
 21
-42.025
  0
LINE
  8
0
 10
72.7894
 20
-42.025
 11
75.3822
 21
-37.1744
  0
LINE
  8
0
 10
75.3822
 20
-37.1744
 11
77.6521
 21
-32.1645
  0
LINE
  8
0
 10
77.6521
 20
-32.1645
 11
79.5895
 21
-27.017
  0
LINE
  8
0
 10
79.5895
 20
-27.017
 11
81.1861
 21
-21.7537
  0
LINE
  8
0
 10
81.1861
 20
-21.7537
 11
82.435
 21
-16.3973
  0
LINE
  8
0
 10
82.435
 20
-16.3973
 11
83.3309
 21
-10.9707
  0
LINE
  8
0
 10
83.3309
 20
-10.9707
 11
83.87
 21
-5.49713
  0
LINE
  8
0
 10
83.87
 20
-5.49713
 11
84.05
 21
0
  0
LINE
  8
0
 10
84.05
 20
0
 11
83.87
 21
5.49713
  0
LINE
  8
0
 10
83.87
 20
5.49713
 11
83.3309
 21
10.9707
  0
LINE
  8
0
 10
83.3309
 20
10.9707
 11
82.435
 21
16.3973
  0
LINE
  8
0
 10
82.435
 20
16.3973
 11
81.1861
 21
21.7537
  0
LINE
  8
0
 10
81.1861
 20
21.7537
 11
79.5895
 21
27.017
  0
LINE
  8
0
 10
79.5895
 20
27.017
 11
77.6521
 21
32.1645
  0
LINE
  8
0
 10
77.6521
 20
32.1645
 11
75.3822
 21
37.1744
  0
LINE
  8
0
 10
75.3822
 20
37.1744
 11
72.7894
 21
42.025
  0
LINE
  8
0
 10
72.7894
 20
42.025
 11
69.885
 21
46.6957
  0
LINE
  8
0
 10
69.885
 20
46.6957
 11
66.6814
 21
51.1664
  0
LINE
  8
0
 10
66.6814
 20
51.1664
 11
63.1921
 21
55.418
  0
LINE
  8
0
 10
63.1921
 20
55.418
 11
59.4323
 21
59.4323
  0
LINE
  8
0
 10
59.4323
 20
59.4323
 11
55.418
 21
63.1921
  0
LINE
  8
0
 10
55.418
 20
63.1921
 11
51.1664
 21
66.6814
  0
LINE
  8
0
 10
51.1664
 20
66.6814
 11
46.6957
 21
69.885
  0
LINE
  8
0
 10
46.6957
 20
69.885
 11
42.025
 21
72.7894
  0
LINE
  8
0
 10
42.025
 20
72.7894
 11
37.1744
 21
75.3822
  0
LINE
  8
0
 10
37.1744
 20
75.3822
 11
32.1645
 21
77.6521
  0
LINE
  8
0
 10
32.1645
 20
77.6521
 11
27.017
 21
79.5895
  0
LINE
  8
0
 10
27.017
 20
79.5895
 11
21.7537
 21
81.1861
  0
LINE
  8
0
 10
21.7537
 20
81.1861
 11
16.3973
 21
82.435
  0
LINE
  8
0
 10
16.3973
 20
82.435
 11
10.9707
 21
83.3309
  0
LINE
  8
0
 10
10.9707
 20
83.3309
 11
5.49713
 21
83.87
  0
LINE
  8
0
 10
5.49713
 20
83.87
 11
0
 21
84.05
  0
LINE
  8
0
 10
0
 20
84.05
 11
-5.49713
 21
83.87
  0
LINE
  8
0
 10
-5.49713
 20
83.87
 11
-10.9707
 21
83.3309
  0
LINE
  8
0
 10
-10.9707
 20
83.3309
 11
-16.3973
 21
82.435
  0
LINE
  8
0
 10
-16.3973
 20
82.435
 11
-21.7537
 21
81.1861
  0
LINE
  8
0
 10
-21.7537
 20
81.1861
 11
-27.017
 21
79.5895
  0
LINE
  8
0
 10
-27.017
 20
79.5895
 11
-32.1645
 21
77.6521
  0
LINE
  8
0
 10
-32.1645
 20
77.6521
 11
-37.1744
 21
75.3822
  0
LINE
  8
0
 10
-37.1744
 20
75.3822
 11
-42.025
 21
72.7894
  0
LINE
  8
0
 10
-42.025
 20
72.7894
 11
-46.6957
 21
69.885
  0
LINE
  8
0
 10
-46.6957
 20
69.885
 11
-51.1664
 21
66.6814
  0
LINE
  8
0
 10
-51.1664
 20
66.6814
 11
-55.418
 21
63.1921
  0
LINE
  8
0
 10
-55.418
 20
63.1921
 11
-59.4323
 21
59.4323
  0
LINE
  8
0
 10
-59.4323
 20
59.4323
 11
-63.1921
 21
55.418
  0
LINE
  8
0
 10
-63.1921
 20
55.418
 11
-66.6814
 21
51.1664
  0
LINE
  8
0
 10
-66.6814
 20
51.1664
 11
-69.885
 21
46.6957
  0
LINE
  8
0
 10
-69.885
 20
46.6957
 11
-72.7894
 21
42.025
  0
LINE
  8
0
 10
-72.7894
 20
42.025
 11
-75.3822
 21
37.1744
  0
LINE
  8
0
 10
-75.3822
 20
37.1744
 11
-77.6521
 21
32.1645
  0
LINE
  8
0
 10
-77.6521
 20
32.1645
 11
-79.5895
 21
27.017
  0
LINE
  8
0
 10
-79.5895
 20
27.017
 11
-81.1861
 21
21.7537
  0
LINE
  8
0
 10
-81.1861
 20
21.7537
 11
-82.435
 21
16.3973
  0
LINE
  8
0
 10
-82.435
 20
16.3973
 11
-83.3309
 21
10.9707
  0
LINE
  8
0
 10
-83.3309
 20
10.9707
 11
-83.87
 21
5.49713
  0
LINE
  8
0
 10
-83.87
 20
5.49713
 11
-84.05
 21
0
  0
LINE
  8
0
 10
-84.05
 20
0
 11
-83.87
 21
-5.49713
  0
LINE
  8
0
 10
-83.87
 20
-5.49713
 11
-83.3309
 21
-10.9707
  0
LINE
  8
0
 10
-83.3309
 20
-10.9707
 11
-82.435
 21
-16.3973
  0
LINE
  8
0
 10
-82.435
 20
-16.3973
 11
-81.1861
 21
-21.7537
  0
LINE
  8
0
 10
-81.1861
 20
-21.7537
 11
-79.5895
 21
-27.017
  0
LINE
  8
0
 10
-79.5895
 20
-27.017
 11
-77.6521
 21
-32.1645
  0
LINE
  8
0
 10
-77.6521
 20
-32.1645
 11
-75.3822
 21
-37.1744
  0
LINE
  8
0
 10
-75.3822
 20
-37.1744
 11
-72.7894
 21
-42.025
  0
LINE
  8
0
 10
-72.7894
 20
-42.025
 11
-69.885
 21
-46.6957
  0
LINE
  8
0
 10
-69.885
 20
-46.6957
 11
-66.6814
 21
-51.1664
  0
LINE
  8
0
 10
-66.6814
 20
-51.1664
 11
-63.1921
 21
-55.418
  0
LINE
  8
0
 10
-63.1921
 20
-55.418
 11
-59.4323
 21
-59.4323
  0
LINE
  8
0
 10
-59.4323
 20
-59.4323
 11
-55.418
 21
-63.1921
  0
LINE
  8
0
 10
-55.418
 20
-63.1921
 11
-51.1664
 21
-66.6814
  0
LINE
  8
0
 10
-51.1664
 20
-66.6814
 11
-46.6957
 21
-69.885
  0
LINE
  8
0
 10
-46.6957
 20
-69.885
 11
-42.025
 21
-72.7894
  0
LINE
  8
0
 10
-42.025
 20
-72.7894
 11
-37.1744
 21
-75.3822
  0
LINE
  8
0
 10
-37.1744
 20
-75.3822
 11
-32.1645
 21
-77.6521
  0
LINE
  8
0
 10
-32.1645
 20
-77.6521
 11
-27.017
 21
-79.5895
  0
LINE
  8
0
 10
-27.017
 20
-79.5895
 11
-21.7537
 21
-81.1861
  0
LINE
  8
0
 10
-21.7537
 20
-81.1861
 11
-16.3973
 21
-82.435
  0
LINE
  8
0
 10
-16.3973
 20
-82.435
 11
-10.9707
 21
-83.3309
  0
LINE
  8
0
 10
-10.9707
 20
-83.3309
 11
-5.49713
 21
-83.87
  0
LINE
  8
0
 10
-5.49713
 20
-83.87
 11
0
 21
-84.05
  0
LINE
  8
0
 10
0
 20
-84.05
 11
5.49713
 21
-83.87
  0
ENDSEC
  0
SECTION
  2
OBJECTS
  0
DICTIONARY
  0
ENDSEC
  0
EOF
